<svg version="1.0" xmlns="http://www.w3.org/2000/svg" width="784" height="784" viewBox="0 0 588 588"><path d="M404.5 5c-2.7 1.6-8 5.3-11.6 8.2-5.9 4.8-10.2 8.5-27.3 24.1l-4.9 4.5-2.9-3.6c-9.9-12.9-11.5-13.7-18.3-9.8-2.4 1.4-5.5 4-6.9 5.8-1.5 1.8-3 3.8-3.5 4.4-1.9 2.3-5.9 11-6.6 14.3-.4 1.9-.9 5.7-1 8.5-.2 2.8-.4 5.7-.4 6.4-.1.7-1.1 1.7-2.3 2.2-3.7 1.6-12.2 7.4-15.6 10.7-3 2.9 11.9 13.2 26 17.8 4 1.4 7.8 2.5 8.5 2.5.7 0 3.7.9 6.8 2.1 3.7 1.4 5.5 2.6 5.5 3.8 0 1-2.7 3.6-6.2 6.1-9.4 6.5-16.9 12.9-20.8 17.7-1.9 2.4-4 4.9-4.6 5.6-1.9 2.2-5.3 13.3-4.7 15.5.6 2.5 3.4 3.2 14.5 3.7 8.8.3 10.8 1.5 10.8 6.1 0 1.3.7 3 1.6 3.8 1.6 1.7 1.7 1.7 12.4-.9 3-.8 6.9-1.6 8.5-1.9 1.7-.3 5.7-.9 9-1.5 8.1-1.4 18.2-.9 22.7 1.1 2.9 1.3 4.2 2.9 6.4 7.5 2.9 6.1 13.2 17.3 15.9 17.3.8 0 1.5.4 1.5.8 0 1.4 15.2 7.8 21 8.8 5.7 1.1 5.6.9 5.6 9.6 0 8.8.5 12 3 19.6 2.4 6.9 10.3 23.2 13.3 27.2 1.4 1.9 3.3 4.4 4.1 5.5.8 1.1 5.6 6.1 10.5 11l9.1 9.1-2.2 5.1c-3.9 8.9-4.5 17.8-1.8 27.5.8 2.9 1.6 6 1.8 6.9 1.3 5 12.7 24.9 14.8 25.7.4.2.8.9.8 1.5.1 2.2 16.2 17.7 18.4 17.7.3 0 2.2 1.2 4.3 2.6 4.3 2.9 14.7 7.8 21.3 10.1 4.1 1.5 17.3 2.1 21 1 6.3-1.8 10.4-5.2 8-6.7-.8-.5-2.4 0-4.2 1.3-2.5 1.9-4.3 2.2-12.1 2.2-9.6 0-15.3-1.6-25.2-7.1-2.2-1.2-5.3-3-7-3.8-12.1-6.5-23.7-19.5-32-36.1-8.5-17-10-27.9-5.5-39.8 1.9-5.1 2.4-5.7 4.3-5.1 1.2.4 2.5 1.2 2.9 1.8.4.6.8.7.8.2 0-.5.6-.3 1.3.3 1.5 1.2 8.6 3.8 12.6 4.6 1.4.3 8.2.8 15.1 1 23 .8 33.4-3.9 33.2-15.1-.2-5.9-2.3-8.8-8.9-12-4.5-2.2-7.3-2.8-15.3-3.2-17.7-.8-30.9 3.1-39.7 11.8l-4.2 4.2-2.8-2c-4.3-3.1-14.4-14.1-19.7-21.5-4.5-6.3-13.2-24.1-14.1-28.8-.3-1.2-.9-3.6-1.4-5.3-1-3.1-1.4-7.8-1.2-15l.1-3.8 5.8.6c3.1.3 6.8.8 8.2 1 1.4.2 4.8.7 7.5 1.1 2.8.3 6.4.8 8 1.1 4.8.6 10.7 1.3 25.5 3 9.4 1 41.7 1.2 46.5.3 2.8-.5 6.4-1.1 8-1.3 9.1-1.3 18.9-7 23.5-13.8 2.9-4.1 3.4-5.8 3.6-11.8.8-21.8-13-38-34.9-40.5-8.4-1-18.2-.6-25.8 1.1-1.3.3-3.7.8-5.4 1.1-1.6.3-7 1.9-12 3.5-25.5 8.6-47.7 23.7-55.4 37.7l-2.9 5.5-.1-6c0-7.8-2.9-20.9-8.1-36.2-2.3-6.8-4-12.5-3.8-12.7.2-.1 3.7-2 7.8-4.2 13.8-7.4 20.3-11.2 26.2-15.6 18.3-13.3 24.3-21.3 21.3-28.5-3.1-7.3-22.4-14.9-54-21.2-3.3-.7-6.7-1.4-7.5-1.5-.8-.2-2-.4-2.6-.4-.6-.1-2-.9-3-1.9-1.7-1.4-2-3.1-2.1-11.7-.1-18.3-1.6-32.2-4-39.5-2.3-7-4.9-7.7-12.8-3zm146.4 137.4c2.4.4 5.2 1.1 6.2 1.7 1.1.5 1.9.7 1.9.4 0-.2 2.2.8 4.8 2.5 8.2 5 12.3 10.6 15 20.7 3.4 12.4.9 21.4-7.5 27-5.1 3.4-12.6 6.2-18.3 6.9-1.9.2-4.8.7-6.3 1-3.2.7-31 .7-37.2 0-5.8-.6-16.5-1.7-20-2.1-3.1-.3-10.2-1.2-16.5-2.1-1.9-.2-5.1-.7-7-.9-1.9-.2-5.5-.7-8-1.1-2.5-.3-5.6-.7-6.8-.9-3.1-.5-3.5-1-2.4-3.2.6-1 2.1-4 3.3-6.8 2.8-5.9 13.1-16.6 20.9-21.6 25.7-16.7 55-24.8 77.9-21.5zM407 170c.5 0 1.5.6 2.2 1.3.7.7 5.8 4.5 11.4 8.5 14.4 10.2 20.8 12.7 24.7 9.4 1.6-1.4 1.6-1.3.6 1.7-1.1 3.1-1.2 3.2-5.7 2.5-12.9-1.9-27.8-11-35.5-21.5-2.6-3.7-2.7-6 0-3.4.8.8 1.8 1.5 2.3 1.5zm130.5 93.4c4.7 1 10.5 3.9 11.9 6.1 1 1.5 1.4 3.8 1.1 6-.5 4.5-1 5.2-4.8 7.2-11.7 6.1-40.9 4.4-53-3l-3.8-2.3 4.4-4.1c7.1-6.5 12.5-8.7 26.7-10.6 2.8-.4 14.5.1 17.5.7zM133.7 19.7c-.2.2-1.4.5-2.5.8-6.5 1.2-17.8 9-21.9 15.1-12.8 18.8.4 39.9 42.7 68.1 8.6 5.8 35.4 22 43.8 26.5 9.5 5.1 9.7 5.5 5.7 10.3-7.9 9.4-14.9 14.7-28.5 21.3-11.6 5.7-33.5 11-43.4 10.4-2.4-.1-2.4-.1-3-5.1-1.2-9.9-5.1-17.1-14.6-26.7-3.5-3.5-6.7-6.4-7.1-6.4-.4 0-1.4-.6-2.1-1.4-3-3-14.3-7.6-18.6-7.6-11.5 0-16.8 10.9-10.4 21.1 3.5 5.4 11.5 12.7 20.2 18.4 11.8 7.7 18.6 10.5 25.8 10.7 3.7.1 3.7.3 1.6 7.9-3.3 11.8-15.6 22.7-33.4 29.8-4.6 1.8-9.1 3.5-9.9 3.7-.9.2-4.3 1.1-7.6 1.9-11.6 3-31.2 1.4-45.4-3.5-9.6-3.4-19.6-11.8-20.4-17.1-.5-2.8-2.5-3.7-3.3-1.5-1.5 4 4.8 12.2 13.6 17.8 4.5 2.9 13.5 6.1 20.1 7.2 1.9.3 4.5.8 5.9 1.1 5.6 1.3 23.6 1.2 29-.2 3-.7 6.3-1.5 7.4-1.8 6.1-1.5 21.8-8.5 28-12.5 11-7.2 18.8-17.5 20.2-26.7.3-2.1.9-4.2 1.4-4.7.4-.4 3.7-1 7.2-1.2 7.5-.4 10.8-.9 16.8-2.3 2.5-.7 5.6-1.4 7-1.7 7.3-1.4 23.2-9 32.5-15.4 6.1-4.2 15.5-13.8 15.5-15.9 0-2.4 2.6-2.9 6.3-1.1 9.4 4.6 21 7.3 30.4 7 7.4-.2 16.6-2.5 18.4-4.6.6-.8 1.6-1.4 2.1-1.4s2.2-1.2 3.8-2.8c2-1.8 2.7-3.1 2.1-4-.6-1.1-1.8-.6-5.4 2.1-11.4 8.7-27.8 9.4-46.1 2.1-3.6-1.4-6.9-3-7.1-3.5-.3-.4.1-3.6 1-6.9 2.3-9.1 2.1-20.6-.6-30-.7-2.5-1.3-5-1.5-5.5-1.3-6.1-11.2-25.9-17.4-35-16.7-24.4-34.7-37.3-52.2-37.3-3.2 0-5.9.2-6.1.5zm18.6 5.5c12.9 4.9 27.2 18.2 38.3 35.6 7.7 12 16.2 31.7 18.1 41.8 1.5 8.3.6 23.2-1.7 27.4-1.2 2.2 1 3.2-19.8-8.9-22.7-13.2-34.8-20.9-47.2-30-8.5-6.3-25-21.9-25-23.8 0-.7-.4-1.3-.9-1.3-1.6 0-5.8-11.5-6-16.5-.2-4.3.4-5.9 3.4-10.5 4.4-6.6 11.1-11.8 19.1-14.8 4.5-1.7 16.1-1.1 21.7 1zM92.6 130.9c5.8 2.6 14.6 9.1 18.8 13.9 1.7 2 3.6 4 4.2 4.6 3 3.1 7.1 13.2 7.6 18.6.3 3.3.1 3.5-2.7 3.6-3.7.1-12-2.2-15.4-4.4-16.4-10-25.9-18.1-29-24.6-2.4-5.2-2.1-7.9 1.3-11.5 3.3-3.5 7.6-3.5 15.2-.2z"/><path d="M295.6 63.2c-3.7 5.7-11.7 33.3-13.1 45.3-.2 1.6-.6 4.1-.9 5.5-1.8 7.9-2.5 33.9-1.3 47.5.3 3.8 1.3 10.8 2.2 15.5.8 4.7 1.7 9.8 2 11.5.3 1.6 1 4.1 1.5 5.5.5 1.4 1.1 3.4 1.3 4.5.2 1.1.6 2.7.9 3.5.3.8 1.6 4.4 2.9 8 3.3 9.4 10.6 23.7 12.5 24.4 2.9 1.1 5.3.6 6.7-1.5 1.8-2.4 1.3-4.2-3.1-12.6-3.2-6.3-8-18.2-8.8-21.8-.2-1.1-1-4.3-1.8-7-5.3-18-7.4-44.9-5.4-68.5l.5-6.5 4.4.3c8.3.5 16.4.5 21.9-.1 4.9-.6 7.4-1 13-2.2.8-.2 1.8-.4 2.1-.4 1.3-.2 1.9-3.3.9-5.1-1-2-1-2-12.8 0-9.2 1.5-14 1.6-22 .7-5.2-.7-6.2-1.1-5.8-2.5.5-1.8 1.3-5.7 2.2-10.6.2-1.5 2.5-8.9 4.9-16.4C303 72.8 305 66 305 65.3c0-4.3-7-5.8-9.4-2.1zM257 149.9c-6.8 3.6-9.4 11.5-6.1 18.4 3.5 7.3 11.7 10.1 18.8 6.5 5.6-2.9 7.7-6.2 7.7-12.4-.1-11.1-10.7-17.7-20.4-12.5zm101 25.5c-23.6 8-38.4 29.1-37.4 53.4 1 23.7 18.5 44.6 41.9 49.8 4.2 1 17.9 1.1 22.4.2 5.5-1.2 17.6-6.8 21.1-9.8 1.4-1.2 3.2-2.7 4-3.4 5.4-4 13.9-17.9 15.4-25.1.3-1.7.9-4.1 1.1-5.5.8-3.6.7-11.7 0-17.5-2.5-18.1-17.3-35.4-36-42.1-7.9-2.8-24.3-2.8-32.5 0zm-132.3 6.8c-14.1 4.6-24.2 14.9-28.1 28.8-2.9 10.5-2.2 19.4 2.4 29.6 8.3 18.5 28.4 28.3 48.4 23.7 7.2-1.7 10.7-3.4 16.6-8.2 22.5-18 21.5-50.6-2-68.3-9.4-7.1-25.6-9.5-37.3-5.6zm-64.4 50.3c-11.9 6-15.3 21.3-7.1 31.8 5.4 6.8 15.5 10 23.3 7.4 8-2.7 14.7-11.7 14.8-20 0-4.7-2.9-12-6.3-15.6-6.1-6.3-16.3-7.7-24.7-3.6zm272.8 23.8c-4 2-6.4 6.2-6.4 11 0 14.7 20.2 16.9 24 2.7 2.6-9.6-8.6-18.4-17.6-13.7zm-142.2 6.1c-.2.2-2 .7-3.9 1-13.4 2.1-29.4 12.6-37.7 24.7-7.9 11.6-11.5 23-11.5 36.5.2 47.1 51 76.8 92.5 54.1 3.1-1.7 5.7-3.5 5.7-3.9 0-.5.5-.8 1-.8 1.3 0 9.8-8.3 13.3-13 11.8-15.9 15.1-39.9 7.9-58.2-4-10.4-8.1-16.5-15.7-23.6-12.1-11.4-23.7-16.1-40.6-16.8-5.8-.2-10.8-.2-11 0zm-110.5 18.2c-25.2 5.1-38.6 31.7-27.9 55.1 3.2 7 11.7 15.4 19.1 18.9 5.2 2.5 7.1 2.8 15.9 2.9 9.2 0 10.6-.3 16.5-3.1 14.4-6.8 23-20.6 22.5-35.9-.3-9-1-11.8-4.3-18-5.4-10-17.2-18.7-27.3-20-2.4-.4-5.3-.8-6.4-.9-1.1-.2-4.8.3-8.1 1zm228.3 7c-.2.3-1.6.7-3.1 1-5.5 1-13.9 5.9-19.3 11.3-17.8 18-17.7 45.7.4 63.6 5.1 4.9 14.2 9.9 21.1 11.4 4 .9 16.9.8 20.2-.2 11.2-3.2 20.6-9.8 26.3-18.7 5.8-8.9 6.8-12.3 7.3-23.6.8-19.8-12-37.5-31.4-43.5-4.7-1.5-20.3-2.4-21.5-1.3zM207 365.7c-3.9.7-11.3 3.5-13.1 5-.8.7-1.9 1.3-2.2 1.3-.4 0-2.7 1.9-5.1 4.2-12.4 12.3-15.6 29.8-8 45.2 10.9 22.3 39.8 29 59.3 13.6 5.3-4.2 7.7-7.2 11-13.9 2.9-5.6 3.3-7.2 3.6-15.7.7-17.1-9.9-32.4-26-37.9-5-1.7-15.1-2.6-19.5-1.8zm156.4 10.9c-18.3 3.7-31.1 18.4-31.9 36.6-.6 11.9 3.7 22.4 12.2 30.4 4.4 4.1 5.7 5 12.3 7.8 20.9 8.9 47-4.2 52.1-26.2 2.6-10.9 1.4-19.8-3.9-29.5-5.3-9.9-17.5-18.1-28.7-19.3-2.2-.3-4.4-.6-5-.8-.5-.2-3.8.3-7.1 1zm-76.2 17.6c-10.3 1.5-19.3 8.2-23.9 17.6-2.4 4.9-2.8 6.9-2.7 14.2 0 6.8.5 9.5 2.3 13.3 2.6 5.2 7.7 10.8 13.1 14.2 11.2 7 28.3 4.8 38.2-4.8 3.4-3.3 9.6-13.7 8.2-13.7-.4 0-.2-.6.4-1.3 1.8-2.2.8-15.6-1.6-20.9-5.7-12.9-19.9-20.7-34-18.6zm-42.9 47.9c-3.4 2.3-6.1 7.7-5.6 11.4 1.2 9 9.8 13.7 17.9 9.9 4.4-2.1 7.5-8.1 6.7-13.1-1.3-8.2-11.9-12.8-19-8.2zm93 13.4c-7.4 2.2-13.7 7.6-17.6 15-1.6 3-2.1 5.8-2.1 11.5 0 4.1.2 8.2.5 9 5.1 15.6 21.8 23.8 37.1 18.3 19.1-6.8 24.8-32 10.5-46.3-7.4-7.4-18.8-10.4-28.4-7.5zm-64.3 7.3c-25.1 8.3-26.8 42.6-2.7 53.2 7 3.1 16 2.9 23.1-.5 18.1-8.6 21.9-32.6 7.3-46.2-7.5-7-18.5-9.6-27.7-6.5zm117.5-.3c-2.2.8-4.1 1.5-4.2 1.5-.2 0-1.4 1.8-2.8 4-7.7 12.3 4.9 26.3 18 20 9.9-4.8 10.6-17.4 1.4-24.2-3.4-2.5-7.8-3-12.4-1.3zM375.4 512c-8.7 2.4-15.7 11.3-15.7 20 0 4 1.4 10 2.4 10 .5 0 .9.6.9 1.3 0 2 6 7.4 10 9.1 4.4 1.8 13.5 1.5 17.5-.6 6-3.2 11.1-10.5 11.9-17 .6-4.9-2.6-13.3-6.4-17.3-4.9-5.1-13.7-7.4-20.6-5.5zm-60.1 4.9c-10.8 4.9-15.3 17.7-10.2 28.7 7.6 16 31.8 15.4 38.5-1 7.4-18-10.6-35.7-28.3-27.7zm40.1 34.2c-12 3.5-13.4 20.4-2.1 25.8 5.1 2.5 7.3 2.6 12 .6 6.4-2.7 10.2-11.4 7.7-17.9-1.2-3.2-6.8-8.6-8.9-8.6-.9 0-2.5-.2-3.6-.4-1.1-.3-3.4 0-5.1.5z"/></svg>